<?xml version="1.0" encoding="UTF-8"?>
<svg width="36px" height="36px" viewBox="0 0 36 36" version="1.1" xmlns="http://www.w3.org/2000/svg" xmlns:xlink="http://www.w3.org/1999/xlink">
    <!-- Generator: Sketch 52.2 (67145) - http://www.bohemiancoding.com/sketch -->
    <title>拜访 (1)</title>
    <desc>Created with Sketch.</desc>
    <g id="Page-1" stroke="none" stroke-width="1" fill="none" fill-rule="evenodd">
        <g id="企业服务" transform="translate(-53.000000, -103.000000)">
            <g id="Group" transform="translate(42.000000, 103.000000)">
                <g id="Group-Copy" transform="translate(11.000000, 0.000000)">
                    <g id="拜访-(1)">
                        <path d="M4.00000001,0 L32,0 C34.6666667,0 36,1.33333334 36,4.00000001 L36,32 C36,34.6666667 34.6666667,36 32,36 L4.00000001,36 C1.33333334,36 0,34.6666667 0,32 L0,4.00000001 C0,1.33333334 1.33333334,4.99600361e-16 4.00000001,0 Z" id="Path" fill="#4576BE"></path>
                        <path d="M9.00128781,11.3535093 C9.00128781,13.2056014 10.5027051,14.7070187 12.3547972,14.7070187 C14.2068892,14.7070187 15.7083065,13.2056014 15.7083065,11.3535093 C15.7083065,9.50141727 14.2068892,8 12.3547972,8 C10.5027051,8 9.00128781,9.50141727 9.00128781,11.3535093 Z M20.7617514,11.3535093 C20.7617514,13.2056014 22.2631687,14.7070187 24.1152608,14.7070187 C25.9673528,14.7070187 27.4687701,13.2056014 27.4687701,11.3535093 C27.4687701,9.50141727 25.9673528,8 24.1152608,8 C22.2631687,8 20.7617514,9.50141727 20.7617514,11.3535093 Z M26.037991,16.0360592 L22.1925306,16.0360592 C21.4056664,16.0360592 20.7617514,16.6799742 20.7617514,17.4681262 L20.7617514,19.1036703 L18.235029,21.6329685 L15.7083065,19.106246 L15.7083065,17.4578236 C15.7083065,16.6722473 15.0643915,16.0283323 14.2788152,16.0283323 L10.4307791,16.0283323 C9.64391499,16.0283323 9,16.6722473 9,17.4578236 L9,26.5576304 C9,27.3444946 9.64391499,27.9884096 10.4307791,27.9884095 L14.2762395,27.9884095 C15.0631037,27.9884095 15.7070187,27.3444945 15.7070187,26.5589182 L15.7070187,21.1320026 L17.719897,23.143593 C17.8615583,23.2852544 18.0482936,23.356085 18.2337412,23.3535094 C18.4268366,23.3564119 18.6128032,23.2806305 18.7488731,23.143593 L20.7604636,21.1320026 L20.7604636,26.5692209 C20.7604636,27.3560851 21.4043786,28 22.1899549,28 L26.0367031,28 C26.8235673,28 27.4674823,27.356085 27.4674823,26.5692209 L27.4674823,17.4694141 C27.4674823,16.6825499 26.8235673,16.0386349 26.0367031,16.0386349 L26.037991,16.0360592 Z M26.037991,25.8518996 C26.0383336,26.0419083 25.9630047,26.2242334 25.828648,26.35859 C25.6942913,26.4929467 25.5119662,26.5682757 25.3219575,26.567933 L22.9072762,26.567933 C22.7174905,26.5679333 22.5354968,26.4924532 22.4014189,26.3581338 C22.267341,26.2238143 22.1921886,26.0416849 22.1925306,25.8518996 L22.1925306,18.1841597 C22.1925306,17.7875081 22.5119124,17.4681262 22.9072762,17.4681262 L25.3219575,17.4681262 C25.7186091,17.4681262 26.037991,17.7875081 26.037991,18.1841597 L26.037991,25.8518996 Z" id="Shape" fill="#FFFFFF" fill-rule="nonzero"></path>
                    </g>
                </g>
            </g>
        </g>
    </g>
</svg>