<?xml version="1.0" encoding="UTF-8"?>
<svg width="36px" height="36px" viewBox="0 0 36 36" version="1.1" xmlns="http://www.w3.org/2000/svg" xmlns:xlink="http://www.w3.org/1999/xlink">
    <!-- Generator: Sketch 52.2 (67145) - http://www.bohemiancoding.com/sketch -->
    <title>专项任务</title>
    <desc>Created with Sketch.</desc>
    <g id="Page-1" stroke="none" stroke-width="1" fill="none" fill-rule="evenodd">
        <g id="企业服务" transform="translate(-170.000000, -104.000000)">
            <g id="Group" transform="translate(42.000000, 103.000000)">
                <g id="Group-Copy" transform="translate(11.000000, 0.000000)">
                    <g id="专项任务" transform="translate(117.000000, 1.000000)">
                        <g id="Group-2" fill-rule="nonzero">
                            <g id="工商边跟-copy" fill="#4576BE">
                                <rect id="Rectangle-Copy-2" x="0" y="0" width="36" height="36" rx="4"></rect>
                            </g>
                            <path d="M14.3750052,8.34975804 L7.92181781,8.34975804 C7.05230382,8.34975804 6.35320848,9.21472754 6.35320848,10.0812119 L6.35320848,27.0685462 C6.35320848,28.106964 7.05154639,28.8 7.9225752,28.8 L29.0211656,28.8 C29.8937092,28.8 30.5905323,27.9350305 30.5905323,27.0685462 L30.5905323,15.8019777 C30.5905323,14.7635599 29.8937093,14.0705239 29.0211656,14.0705239 L20.1290974,14.0705239 C19.7806859,14.0705239 19.2557963,13.8963181 19.082348,13.3759731 L15.5959605,8.86858828 C15.2475489,8.52244902 14.8968652,8.34975808 14.3750052,8.34975804 Z M21.0016411,22.7330949 C21.3500526,22.7330949 21.6984641,23.0792342 21.6984641,23.5995792 C21.6984641,24.1199243 21.3500526,24.4660635 20.8259205,24.4660635 L10.0145592,24.4660635 C9.49269934,24.4660635 9.14277298,24.1199243 9.14277298,23.5995792 C9.14277298,23.0792342 9.49269934,22.7330949 10.0145592,22.7330949 L21.0016411,22.7330949 Z M25.3598149,22.7330949 C25.8831896,22.7330949 26.2316011,23.0792342 26.2316011,23.5995792 C26.2316011,24.1199243 25.8831896,24.4660635 25.3605723,24.4660635 L24.6629918,24.4660635 C24.1373448,24.4660635 23.7912056,24.1199243 23.7912055,23.5995792 C23.7912055,23.0792342 24.1396171,22.7330949 24.6629918,22.7330949 L25.3598149,22.7330949 Z M28.6712392,9.21472754 L18.5597307,9.21472754 C18.0371134,9.21472754 17.8629076,9.90927835 18.2098043,10.2554176 L19.7806859,12.5094887 C19.7806859,12.6814222 19.9556491,12.6814222 20.1290974,12.6814222 L28.6727541,12.6814222 C29.0211656,12.6814222 29.1968862,12.3330107 29.1968862,11.9891437 L29.1968862,9.90927835 C29.1968862,9.56313909 29.0211656,9.21472754 28.6712392,9.21472754 Z" id="Shape" fill="#FFFFFF"></path>
                        </g>
                        <g transform="translate(6.171429, 8.228571)"></g>
                    </g>
                </g>
            </g>
        </g>
    </g>
</svg>