<?xml version="1.0" encoding="UTF-8"?>
<svg width="36px" height="36px" viewBox="0 0 36 36" version="1.1" xmlns="http://www.w3.org/2000/svg" xmlns:xlink="http://www.w3.org/1999/xlink">
    <!-- Generator: Sketch 52.2 (67145) - http://www.bohemiancoding.com/sketch -->
    <title>工商边跟</title>
    <desc>Created with Sketch.</desc>
    <g id="Page-1" stroke="none" stroke-width="1" fill="none" fill-rule="evenodd">
        <g id="企业服务" transform="translate(-287.000000, -104.000000)" fill-rule="nonzero">
            <g id="Group" transform="translate(42.000000, 103.000000)">
                <g id="Group-Copy" transform="translate(11.000000, 0.000000)">
                    <g id="工商边跟" transform="translate(234.000000, 1.000000)">
                        <rect id="Rectangle-Copy-2" fill="#4576BE" x="0" y="0" width="36" height="36" rx="4"></rect>
                        <g id="工商变更" transform="translate(6.171429, 6.171429)" fill="#FFFFFF">
                            <path d="M14.8334316,8.71431509 L14.8334316,9.81212002 C14.8334316,10.3039513 15.130563,10.7049329 15.4926202,10.7049329 C15.8557091,10.7049329 16.1521698,10.3039513 16.1521698,9.81212002 L16.1521698,8.71431509 C16.1521698,8.22369619 15.8550642,7.82243081 15.4926202,7.82243081 C15.130563,7.82243081 14.8334316,8.22372199 14.8334316,8.71431509 Z M0.696616928,8.52954626 L3.90243224,8.52954626 C4.41660188,8.52866923 4.53512942,8.47357134 4.53512942,7.97209279 L4.53512942,7.84598155 C4.53512942,7.34419346 4.93306726,6.93542176 5.41767595,6.93542176 L6.12383699,6.93542176 C6.61030291,6.93542176 7.00612557,7.34414187 7.00612557,7.84598155 L7.00612557,7.97900582 C7.00612557,8.48141299 7.13017322,8.52954626 7.61478191,8.52954626 L13.7626855,8.52954626 C14.2117747,8.52954626 14.2562966,8.46787067 14.2562966,8.04854886 L14.2562966,7.84595575 C14.2562966,7.34416767 14.6536412,6.93539597 15.1388432,6.93539597 L15.8254775,6.93539597 C16.3110148,6.93539597 16.7077661,7.34411608 16.7077661,7.84595575 L16.7077661,8.00485231 C16.7077661,8.45605661 16.8561899,8.52949467 17.2875579,8.52949467 L20.6805926,8.52949467 C21.1402576,8.52949467 21.2702639,8.40095871 21.2702639,7.94704595 L21.2702639,6.92935996 C21.2702639,5.92697035 20.4764776,5.10728598 19.5054288,5.10728598 L17.3938071,5.10728598 C16.4853367,2.15258397 13.8114637,0.00634554411 10.6474877,0.00634554411 C7.48351169,0.00634554411 4.81051572,2.15258397 3.90235486,5.10728598 L1.76940081,5.10728598 C0.798351993,5.10728598 0.00487523511,5.92699615 0.00487523511,6.92935996 L0.00487523511,7.88359051 C0.00484944021,8.39863717 0.150539006,8.52957206 0.696565338,8.52957206 L0.696616928,8.52954626 Z M10.6475393,1.96108267 C12.7492299,1.96108267 14.55771,3.25335531 15.3734477,5.10728598 L5.92255943,5.10728598 C6.73827138,3.25332951 8.54530694,1.96108267 10.6475393,1.96108267 Z M15.2515153,15.3203876 C17.7288828,13.0456133 21.27176,14.288824 21.27176,14.288824 L21.27176,10.4424699 C21.27176,10.0325116 21.1022875,9.89579866 20.7290354,9.89579866 L17.3119599,9.89579866 C16.8372564,9.89670148 16.7084367,9.98038012 16.7084367,10.3858501 L16.7084367,10.5793892 C16.7084367,11.0808677 16.3114275,11.4920383 15.8261481,11.4920383 L15.1395138,11.4920383 C14.6539765,11.4920383 14.2571995,11.0808419 14.2571995,10.5793892 L14.2571995,10.3978705 C14.2571995,10.0035697 14.1485514,9.89672727 13.7551534,9.89672727 L7.63830685,9.89672727 C7.13626082,9.89672727 7.00617716,10.0080838 7.00617716,10.463209 L7.00617716,10.579415 C7.00617716,11.0808935 6.60916794,11.4920641 6.12388858,11.4920641 L5.41772754,11.4920641 C4.93311885,11.4920641 4.53518101,11.0808677 4.53518101,10.579415 L4.53518101,10.5056416 C4.53518101,9.97346708 4.40664505,9.89579866 3.92680842,9.89579866 L0.681243171,9.89579866 C0.14455459,9.89579866 0.00546851769,10.03246 0.00546851769,10.579415 L0.00546851769,19.6865605 C0.00546851769,20.6894918 0.799254814,21.5094857 1.77030363,21.5094857 L13.5588801,21.5094857 C13.5589059,21.5094857 12.23359,18.0911979 15.2515153,15.3203618 L15.2515153,15.3203876 Z M5.12211805,8.71431509 L5.12211805,9.81212002 C5.12211805,10.3039513 5.41924944,10.7049329 5.78130658,10.7049329 C6.14341532,10.7049329 6.4405725,10.3039513 6.4405725,9.81212002 L6.4405725,8.71431509 C6.4405725,8.22369619 6.14344111,7.82243081 5.78130658,7.82243081 C5.41891411,7.82243081 5.12211805,8.22372199 5.12211805,8.71431509 Z M18.9991781,14.5476758 C16.2108532,14.5476758 13.9506271,16.8125449 13.9506271,19.6065189 C13.9506271,22.4002092 16.2109048,24.6650526 18.9991781,24.6650526 C21.787142,24.6650526 24.047497,22.4005188 24.047497,19.6065189 C24.047497,16.8125191 21.7871936,14.5476758 18.9991781,14.5476758 Z M14.6648878,18.3308582 C15.0381141,18.3846922 15.3147644,18.4244679 15.6184992,18.4683966 C16.1865028,17.3744609 16.923076,16.4404794 18.2090031,16.199684 C19.0669155,16.0392398 19.9178891,16.1141739 20.6995776,16.553332 C18.4919473,16.7896391 17.5443719,17.4184412 17.4477184,18.8124747 C17.7634479,18.8720351 18.0879993,18.9340976 18.5753164,19.0264949 C17.7128899,19.6811952 16.9736082,20.2413829 16.1711033,20.8503488 C15.6774406,20.0243446 15.1994096,19.2251414 14.6648104,18.3308582 L14.6648878,18.3308582 Z M22.389169,20.7245471 C21.7805127,21.888 21.0081361,22.8240967 19.6707224,23.0414187 C18.8447441,23.1762486 18.0467532,23.0299916 17.2574553,22.6518642 C18.8923357,22.7078391 20.1406022,22.2325682 20.5972235,20.4096172 C20.2056054,20.3353021 19.8814151,20.2735491 19.4265738,20.1874974 C20.2835575,19.536718 21.0331056,18.9659543 21.8217329,18.366094 C22.3253009,19.2110058 22.8018357,20.0125822 23.3331332,20.9036152 C22.9487635,20.8304609 22.6724743,20.7784068 22.3891948,20.7245471 L22.389169,20.7245471 Z" id="Shape"></path>
                        </g>
                    </g>
                </g>
            </g>
        </g>
    </g>
</svg>